<?xml version="1.0" encoding="UTF-8"?><svg id="Layer_2" xmlns="http://www.w3.org/2000/svg" width="282.96" height="183.74" viewBox="0 0 282.96 183.74"><g id="Layer_1-2"><g><path d="M272.63,119.95c1.27-1.41,2.65-1.65,4.19-1.1,.03,.14,.13,.33,.08,.42-.32,.56-1.5,.55-1.11,1.57,.38,.98,1.22,.75,2.03,.71,.78-.04,1.58,.13,2.5,.22,.03,.68,.06,1.28,.09,1.83-1.1,.46-4.97-1.54-6.14-3.13-.4,.33-.8,.66-1.2,.99-2.24,0-3.4-1.7-4.44-3.26-.47-.7-.08-1.98-.08-2.87,.98-.64,1.86-.49,2.65-1.28,.95-.95,2.46-1.4,3.13-2.81,.05-.11,.55-.01,1-.01-.34,1.36-.63,2.55-.93,3.74-2.59,1.11-3.1,2.33-1.78,4.98Z" fill="#2c1c12"/><path d="M279.52,91.15c-.41-.21-.9-.45-1.75-.88,1.22-.38,1.8-.56,2.69-.83,0,1.46,.02,2.7-.01,3.93,0,.28-.16,.78-.31,.8-1.41,.22-.93,1.73-1.68,2.4q-.61-2,1.06-5.43Z" fill="#2c1c12"/><path d="M257.97,118.83c.8,1.07-.46,2.5,1.15,2.9-2.42,2.62-2.65,2.68-4.3,1,.27-.02,.5-.07,.72-.04,1.98,.29,2.18,.16,1.78-1.65-.19-.87-.04-1.47,.65-2.21Z" fill="#2c1c12"/><path d="M280.27,76.11v2.82c-1.47-1.64-1.44-2,0-2.82Z" fill="#2c1c12"/><path d="M275.4,94.03q0-2.55,1.52-2.55c-.51,.85-1,1.67-1.52,2.55Z" fill="#2c1c12"/><path d="M279.14,84.94c-.38,.35-.61,.66-.91,.8-.1,.05-.61-.42-.57-.52,.12-.32,.37-.63,.65-.82,.09-.06,.45,.28,.83,.54Z" fill="#2c1c12"/><path d="M276.63,87.85c-.94,.07-1.44,.11-1.94,.14,0-.25-.05-.44,0-.5,.49-.47,1-.56,1.93,.35Z" fill="#2c1c12"/><path d="M273.33,91.66c-.13,.52-.27,1.05-.4,1.57-.16-.04-.33-.08-.49-.12,.11-.52,.22-1.03,.33-1.55,.19,.03,.37,.06,.56,.1Z" fill="#2c1c12"/><path d="M275.19,63.89c.59,.05,1.18,.09,1.78,.14-.02,.2-.04,.41-.06,.61l-1.77-.23c.02-.17,.03-.34,.05-.51Z" fill="#2c1c12"/><path d="M255.93,115.85c-.61-.59-.93-.91-1.58-1.54,1.24,.04,1.65,.26,1.58,1.54Z" fill="#2c1c12"/><path d="M263.14,69.28c-.52,.42-.93,.76-1.31,1.07-1.2-.62-2.31-1.19-3.37-1.73-.34-1.92,1.45-2.03,2.54-2.95-.54-.44-.98-.79-1.52-1.22,.4-.65,.86-.93,1.4-.21,.37,.49,.74,.98,1.32,.51,.27-.22,.24-.8,.33-1.22,.13-.59,.14-1.24,.41-1.77,.45-.91,1.36-1.71,.23-2.72,.56-1.03,1.12-2.06,1.92-3.54-.21-.87-1.34-2.54,1.19-3.46,.23,.46,.55,.89,.66,1.37,.18,.75-.02,1.63,.94,2.04,.17,.07,.38,.42,.33,.58-.6,2.19,.52,4.35-.08,6.61-.41,1.55-.02,3.31,.05,4.97,.03,.87,.07,1.76,.22,2.61,.13,.74,.32,1.52,.69,2.17,1.02,1.81,1.01,2.31-.49,3.89-.97,1.02-2,2-3.16,3.16,.87,2.42,3.37,1.72,5.06,2.43-.49,.98-.98,1.98-1.63,3.3-.36,.18-1.07,.53-1.88,.92,1.13,1.72,2.06,3.47,1.22,5.63-.18,.45,.19,1.09,.17,1.64-.04,1.14-.27,1.36-1.77,1.87-.49-.8-.94-1.64-.43-2.6,.69-1.3,.75-2.38-.71-3.2-.3-.17-.44-.62-.82-1.2-.95,.75-1.84,1.46-3.03,2.4-.56-.3-1.41-.76-2.39-1.28,.68-1.04,.45-2.66,2.35-1.79,.27,.13,1.04-.82,1.69-1.37,.63,.63,1.36,1.17,2.2,.35,.67-.65,1.36-2.93,.98-3.54-.36-.58-.84-1.41-1.37-1.49-1.28-.2-1.34-1.04-1.29-1.91,.12-2.37,.26-4.74,.53-7.09,.2-1.72,.29-1.71-1.16-3.23Z" fill="#2c1c12"/><path d="M249.33,103.35c1.61-2.84,3.31-.61,5.15-.22,2.16-1.69,4.4-3.47,6.68-5.21,.28-.21,.72-.24,1.09-.31,.88-.18,1.76-.33,2.71-.51,1.01,1.66,.16,4.36-1.73,4.44-1.81,.07-3.05,.99-4.44,1.85-.92,.57-2.01,.88-3.03,1.29-.87,.35-1.84,.54-2.62,1.03-1.56,.98-2.58,.76-3.31-.94-.18-.43-.31-.88-.5-1.43Z" fill="#2c1c12"/><path d="M277.06,56.55c-1.05-.54-2.11-1.09-3.46-1.79,.79-.62,1.4-1.1,2.29-1.81,.63,1.21,1.14,2.18,1.65,3.15-.16,.15-.32,.3-.48,.44Z" fill="#2c1c12"/><path d="M272.59,47.49c1.14,.78,2.45,1.17,2.01,2.86-2.84-.31-2.99-.49-2.01-2.86Z" fill="#2c1c12"/><path d="M270.45,45.12c.35-.34,.66-.91,1.06-.97,.57-.1,1.24,.09,1.79,.33,.23,.1,.37,.67,.35,1.01-.01,.21-.4,.57-.61,.57-.8-.02-1.6-.15-2.41-.25-.06-.23-.12-.46-.18-.69Z" fill="#2c1c12"/><path d="M268.4,102.57c-1.69-.87-2.04-1.45-1.33-2.56,.22-.35,.83-.45,1.3-.68,0,1.27,0,2.29,0,3.3,0,0,.04-.06,.04-.06Z" fill="#2c1c12"/><path d="M278.27,48.23c-.58-1.23-.99-2.11-1.45-3.09,2.52,.29,2.66,.55,1.45,3.09Z" fill="#2c1c12"/><path d="M259.05,91.18c.82,1.14,.99,1.95,.14,2.94-.95-.88-.89-1.7-.14-2.94Z" fill="#2c1c12"/><path d="M250.21,118.29c.45,.03,.91,.06,1.73,.11-.4,.62-.65,1.34-.9,1.34-1.04,0-.87-.8-.78-1.5,0,0-.05,.05-.05,.05Z" fill="#2c1c12"/><path d="M264.75,95.42c-.27-.52-.61-.89-.54-1.09,.1-.26,.52-.47,.84-.53,.12-.03,.52,.44,.47,.6-.09,.3-.39,.55-.78,1.03Z" fill="#2c1c12"/><path d="M251.28,68.72c.39,.46,.65,.69,.8,.98,.05,.1-.27,.51-.31,.5-.31-.12-.66-.26-.87-.5-.08-.1,.17-.47,.37-.98Z" fill="#2c1c12"/></g><path d="M162.36,7.49c-4.16-1.2-7.92-2.29-11.49-3.33,1.92-1.21,7.18,.13,11.49,3.33Z" fill="#2c1c12"/><path d="M281.96,133.84H.45C0,132.33-.21,43.8,.29,39.21c3.64-.52,7.32-1.17,11.02-1.53,3.76-.37,7.44-.88,10.95-2.39,2.93-1.26,5.92-2.41,8.94-3.44,2.87-.98,5.81-1.74,8.72-2.58,5.29-1.54,10.63-2.91,15.84-4.67,2.92-.99,5.62-2.61,8.41-3.97,.57-.28,1.07-.73,1.67-.93,6.1-2.13,11.29-5.98,16.84-9.09,3.45-1.94,6.89-3.31,10.67-2.65,7.81,1.36,15.65,.32,23.46,.8,4.35,.27,8.3-1.31,12.18-3.1,2.31-1.07,4.67-2.05,7.06-2.94,1.94-.72,3.93-1.36,5.94-1.84,4.66-1.11,9.26-1.49,13.78,.84,3.27,1.68,6.78,2.72,10.38,3.6,7.28,1.79,14.61,3.57,21.42,6.81,2.7,1.28,5.6,1.18,8.35,1.95,2.61,.73,5.18,1.57,7.77,2.37,1.75,.54,3.48,1.17,5.25,1.64,3.85,1.04,7.75,1.94,11.59,3.02,1.75,.5,3.44,1.24,5.13,1.96,6.62,2.79,13.2,5.63,20.4,6.7,2.75,.41,5.46,1.2,8.17,1.85,2.88,.69,5.79,.95,8.76,1.1,4.77,.23,9.55,.9,13.93,3.04,5.07,2.47,5.04,2.51,5.04,8.13v89.95ZM50.69,55.48c.65,.08,1.3,.17,2.12,.27,.18-1.01,.33-1.87,.49-2.76-2.25-.4-2.42,1.07-2.77,2.33-.73,.09-1.45,.18-2.59,.31,.87,.72,1.38,1.14,2.11,1.74,.26-.76,.46-1.33,.65-1.89Zm39.6,5.34c.03-.22,.15-.5,.06-.63-.14-.2-.42-.36-.67-.4-.11-.02-.28,.27-.42,.42,.21,.16,.42,.33,.64,.46,.12,.07,.29,.07,.44,.09,.64,.96,1.41,1.1,2.45,.56,.73-.38,1.56-.57,2.33-.85,.88-1.52,2.41-2.73,2.3-4.74,.83,.3,1.41,.5,2.3,.82,.1-1.69,.19-3.04,.28-4.55-2.63,.56-4.05,2.31-4.93,4.14-1.08,2.25-2.57,3.76-4.78,4.67Zm62.95,40.51c1.75,.58,3.34,1.47,4.97,2.33,1.25,.66,2.84,1.01,4.34,.22,1.32-.69,2.65-1.36,3.96-2.02,.54,.43,.99,.77,1.79,1.4-.14-.94-.04-1.75-.32-1.93-1.32-.83-.95-1.84-.37-3.07-.67-.33-1.27-.82-1.86-.81-.28,0-.77,.96-.78,1.5-.06,2.1-.96,3.29-3.13,3.44-.32,.02-.63,.34-1.42,.79,.67-1.68,.25-2.63-.86-3.28-1.12,.2-2.25,.39-3.39,.59-.03-.34-.07-.45-.04-.49,.21-.22,.43-.42,.66-.64-1.73-2.67-4.51-3.82-7.25-5.19-.02,.77-.04,1.66,.38,1.99,1.59,1.23,1.19,2.55,.63,3.86-.81-.17-1.46-.32-2.62-.57,.99,1.14,1.56,1.8,2.1,2.42,2.31,.02,1.45-1.81,1.7-2.87q2.18-.53,3.17,1.08c-.52,.43-1.05,.88-1.59,1.33-1.55,.96-.92,2.36-.87,3.94,1.31-1.34,.67-2.75,.8-4.02ZM108.27,30.87c1.6-.45,3.21-.91,4.91-1.39,1.06,1.29,1.09,1.63-.15,2.63-.67,.54-1.48,.91-2.18,1.41-.83,.59-2.1,1.08-2.34,1.87-.42,1.36-1.33,1.62-2.53,1.87-.13,2.82-.25,5.57-.38,8.44h1.85c.25-.54,.36-1.03,.65-1.34,1.08-1.14,2.25-2.19,3.34-3.32,1.18-1.23,2.17-1.41,4.18-.58-.84,1.35-.85,2.73-.3,4.25,.2,.53-.26,1.59-.76,2.04-1.17,1.06-2.53,1.89-3.73,2.75-.07,1.05-.12,1.96-.18,2.88h-2.71c-.17-.76-.29-1.31-.37-1.68-.62,.56-1.17,1.05-1.71,1.53,.36,1.87,2.75,2.97,2.14,5.21-1.53,.82-2.52,.04-3.37-.88-1.18,.34-2.59,.25-2.65,2,1.65-.83,2.64,.5,4.04,.93-.18,.66-.16,1.35-.5,1.66-1.09,1.01-1.47,2.19-1.13,3.54-.8,.46-1.45,.9-2.15,1.22-.7,.32-1.45,.54-2.13,.78,.05,2.73-1.23,4.08-3.79,4.17-2.96,.11-3.76,1.39-2.58,4.06,.47,1.05,1.05,2.03,.65,3.36-.57,1.88,.15,2.69,2.47,2.96,.17-.97,.33-1.96,.52-3.04,.64-.28,1.28-.56,2.03-.89-.44-1.75,.69-2.74,1.92-3.67,.25-.19,.52-.34,.78-.51,1.85-1.21,4.14-1.77,5.04-4.27,.65-1.81,2.5-2.51,4.48-3.07-.57-.83-.68-1.37,.17-2.05,1.69-1.36,1.13-4.16,3.17-5.42,.03-.02-.14-.28-.13-.43,.01-.28,.05-.77,.14-.79,1.11-.18,.99-1.35,1.57-1.89,.97-.91,1.01-2.45,2.53-3.03,2.61-1,2.77-2,.98-4.2-.1-.12-.14-.28-.28-.58,.98-1.41,1.9-2.98,3.06-4.35,1.34-1.57,2.08-1.63,3.97-.84,1.26-.86,2.55-1.75,3.85-2.65,.48,.28,1.04,.41,1.11,.68,.5,1.71,2.22,1.88,3.27,2.82,.85,.77,2.72,1.44,1.81,3.39-1.39,.85-2.82,1.72-4.26,2.6,.87,.5,1.67,1.09,2.56,1.43,.78,.29,1.83,.62,1.87-.89l-.07,.07c.62-.05,1.24-.14,1.46,.71,.19,.76,.69,.7,1.23,.38-.32,1.03-.26,1.93,.79,2.68,1.08-1.43-.15-1.95-.8-2.66,.04-1.59-.45-3.25,.61-5,1.18,1.53,2.8,2.38,2.66,4.61,.5-.53,.72-.98,1.04-1.06,.41-.1,1.02-.03,1.29,.22,.26,.24,.39,.94,.23,1.24-.74,1.33-1.6,2.58-2.44,3.89,1.78,1.52,.18,3-.01,4.55-.8,.26-1.53,.5-2.45,.8,.58,1.16,.03,2.75,1.96,3.05,.36-1.58,1.4-1.72,2.71-1.32-.12,1.82,.29,3.39,1.89,4.57,1.83-1.83-.38-4.93,2.52-6.18-.55-1.5-1.07-2.82-1.52-4.16-.54-1.61-.91-3.24,.32-4.81h2.39c-.25,1.71,.73,2.62,1.76,3.29-.18,2.42,.21,4.49,1.67,6.28,.29,.36,.67,.74,.75,1.16,.31,1.54,.28,3.24,2.35,3.7,.21,.05,.26,.7,.43,1.05,.04,.09,.25,.1,.44,.17,.25-.5,.51-1,.78-1.54,1.64,1.26,1.9,1.82,.85,2.9-.8,.81-.52,1.37-.2,2.1,1.05,2.4,3.23,2.64,5.85,3.06-.54-1.11-.91-1.87-1.46-3-.57,.86-.88,1.32-1.22,1.82-.4-.21-.83-.28-.93-.5-.83-1.81-.67-3.58,.48-5.19,.22-.31,.81-.51,1.23-.51,1.61,.01,4.61,4.33,4.14,5.9-.09,.3-.4,.59-.38,.87,.04,.58,.15,1.19,.37,1.73,.15,.37,.53,.65,.81,.98-1.36,1.17-1.46-1.02-2.5-.66-.02,.22-.16,.54-.05,.66,1.01,1.16,2.03,2.31,3.12,3.39,.48,.48,1.6,.74,1.64,1.17,.09,1.02,.69,1.11,1.38,1.3,.91,.25,1.81,.52,2.73,.78,.91,1.62,.94,1.55,2.53,2.12,.71,.26,1.31,.82,1.92,1.3,1.72,1.33,3.39,2.72,5.14,4.02,.39,.29,1.19,.15,1.46,.48,2.17,2.67,5.07,3.64,8.35,3.83,.31,.02,.74,0,.9,.19,.89,1.01,1.9,.84,3.28,0-.49,.93-.74,1.41-1.1,2.1,2.04,.11,3.81,.19,5.57,.31,.3,.02,.67,.14,.85,.35,1.54,1.79,3.87,1.42,5.8,1.91,1.57,.4,3.22,.32,4.79,1.13,1.22,.63,2.71,1.48,4-.4,.37-.53,1.82-.55,2.7-.39,.59,.11,1.06,.93,1.48,1.34,1.09,0,2.36-.39,3.08,.08,1.46,.94,2.97,1.38,4.69,1.41,.14,.82,.26,1.5,.39,2.26,.5-.43,.89-.77,1.43-1.23,.97,1.8,2.42,2.51,4.27,2.56,.3,0,.55,.55,.89,.73,1.34,.71,2.69,1.41,4.08,2.03,.3,.13,.76-.13,1.15-.19,.37-.05,.94-.23,1.07-.07,.82,1.02,1.74,.16,2.78,.09-.2,1-.37,1.82-.59,2.89h4.85c0,.64,.19,1.35-.06,1.83-.2,.38-.93,.49-1.74,.86,.93,.49,1.54,.81,1.93,1.01v2.22l.05-.05c-1.27,.27-1.97,1.18-2.62,2.24,.25,.31,.4,.59,.64,.79,1.02,.85,2.19,.94,3.38,.49,1.04-.4,.85-1.39,.95-2.25,.06-.53,.31-1.03,.5-1.62-.55-.45-1.07-.89-1.4-1.16,.51-1.01,.96-1.89,1.36-2.69-.22-.25-.26-.34-.32-.36-.74-.27-1.65-.44-1.43-1.52,.23-1.1,1.09-.94,1.91-.79,.95,.17,1.81,.34,2.47-.77,.38-.64,1.14-.35,1.62,.2,.87,1.01,1.72,2.04,2.7,3.2-1.18,.7-2.3,1.38-3.49,2.09,.73,1.52,1.88,.35,2.96,.36,.47,1.74,1.82,1.87,3.34,1.79,.87-.04,1.74,.17,2.61,.17,.4,0,.81-.22,1.4-.4-.41-.57-.71-.92-.95-1.31-.46-.74-.37-1.53,.45-1.77,1.08-.32,1.26-1.02,1.41-1.93,.17-1.07,.7-1.76,1.97-1.49,.26,.06,.57-.12,.94-.22-.03-1.47,.43-2.87-.44-4.21-1.14,.42-1.66,2.26-3.28,1.28,.1-.7,.41-1.4,.24-1.96-.3-.98-.12-1.64,.58-2.36,.35-.36,.44-.98,.65-1.48l-.04,.06c1.53-2.02,2.94-4.07,1.35-6.63,1.49-2.98,1.44-3.41-.68-5.86,.64-.29,1.25-.56,1.82-.81-.12-.84-.22-1.53-.31-2.2,.72-.41,1.33-.76,2.01-1.16-.97-3.48-1.33-6.82,.55-10.15,.48-.85,.82-1.54,1.71-1.64,.99-.12,1.09-.77,1.19-1.48,.02-.16-.19-.35-.38-.7-.43,.61-.76,1.08-1.2,1.7-.45-.38-1.1-.7-1.07-.94,.16-1.28,.49-2.55,.79-3.95-.57-.54-1.61-1.11-1.97-1.97-.4-.96-.1-2.19-.27-3.28-.09-.55-.55-1.05-.83-1.57-.11-.2-.18-.41-.28-.64,.35-.55,.67-1.07,.87-1.38-.3-.98-.51-1.73-.75-2.47-.17-.52-.33-1.05-.56-1.55-.48-1.07-.98-2.14-1.51-3.19-.48-.94,.07-1.3,.8-1.6,2.09,1.59,2.54,3.91,2.72,6.25,2.18,.79,4.25,1.54,6.36,2.3-.16,.7-.28,1.21-.41,1.77,.7,.35,1.32,.66,1.96,.98v-8.4c-.97-.1-1.76-.18-2.55-.27-.36-.67-.69-1.29-1.09-2.02,.56-.24,1.05-.46,1.44-.62,.95,.19,1.08,1.65,2.39,1.09,0-3.07-.08-6.18,.03-9.29,.05-1.49-.54-2.3-1.77-3.03-5.35-3.2-11.13-4.67-17.35-4.68-1.82,0-3.65-.29-5.44-.64-3.6-.7-7.16-1.66-10.77-2.29-6.57-1.16-12.87-3.25-18.96-5.84-4.94-2.11-9.91-4.02-15.16-5.15-1.25-.27-2.49-.58-3.7-.98-5.83-1.93-11.64-3.96-17.76-4.83-.78-.11-1.56-.36-2.29-.68-4.17-1.84-8.48-3.24-12.84-4.56-7.18-2.18-14.54-3.74-21.45-6.81-2.3-1.02-4.81-1.04-7.32-.66-2.28,.35-4.5,1.1-6.72,1.43-3.19,.48-5.94,1.68-8.68,3.18-4.93,2.68-10.1,4.4-15.83,3.9-.87-.08-1.76-.03-2.64-.04-6.54-.05-13.1,.53-19.6-.87-2.38-.51-4.81,.15-6.95,1.33-3.42,1.9-6.7,4.06-10.14,5.93-5.47,2.96-11.02,5.77-16.54,8.64-.21,.11-.44,.18-.67,.25-4.73,1.46-9.46,2.92-14.19,4.39-5.64,1.76-11.27,3.55-16.91,5.29-4.03,1.24-7.83,3.28-12.14,3.61-2.23,.17-4.46,.42-6.68,.66-2.44,.26-4.88,.56-7.26,.84-.46,3.56-.31,28.1,.22,30.07,.99-.88,2.16-1.53,2.77-2.53,.82-1.35,1.89-1.52,3.2-1.49,.39,0,.79-.08,.88-.09,1.57-2.04,2.99-3.87,4.24-5.5,.92,.63,1.56,1.07,2.22,1.53,.15,.72,.32,1.53,.52,2.47,.97-.45,1.67-.77,2.29-1.05,.94-2.08-1.04-2.16-1.9-2.9,.37-2.94,1.58-4.01,4.2-3.78,.74-1,1.48-2.02,2.18-2.97,1.22-.19,2.39-.37,3.55-.55l-.08-.08c.53,2.54,2.8,.85,3.81,1.73,.57-.83,.89-1.83,1.51-2.09,1.2-.48,2.08-1.17,2.62-2.27,.37-.76,.87-.81,1.51-.56,1.35,1.64-1.37,2.42-.8,3.93,.09,.24-.3,.71-.54,1.02-.13,.16-.42,.2-.62,.31-1.52,.8-1.59,.97-1.18,2.96,.74,.11,1.65-1.04,2.3,.41-.37,.58-.78,1.23-1.28,2.01,.64,.45,1.2,.85,1.82,1.29,1.56-1.19,3.02-2.33,4.52-3.41,.82-.6,2.03-.9,2.52-1.67,1.36-2.14,3.11-3.61,5.43-4.62,.99-.43,1.69-1.52,2.7-2.48,.38-.06,1.4,.08,1.71-.32,1.1-1.43,2.7-2.12,4.04-3.19,2.24-1.79,4.28-3.84,6.48-5.86,.45,.23,1.03,.53,1.75,.9,.41-2.75,2.42-3.88,4.38-5.01,.34-.2,.85-.1,1.57-.17-.66,1.6-1.88,3.2,.57,3.96,.76-.91,1.46-1.75,2.29-2.74-.77-.61-1.48-1.16-2.17-1.71,1.75-2.61,2.38-2.75,4.82-1.19,.06,.04,.16,.02,.24,.03-.73,.46-1.46,.92-2.31,1.46,.4,.42,.8,1.09,1.36,1.3,.28,.1,.84-.7,1.34-.99,.31-.19,.77-.14,1.09-.33,.37-.22,.65-.57,.97-.87,.72,.07,1.45,.14,2.17,.21,0,.16,0,.32,0,.49-.56,.11-1.12,.22-1.74,.34-.14,.7-.27,1.38-.34,1.7,1.03,1.09,2.05,1.83,2.54,2.83,.3,.62-.01,2.25-.39,2.37-1.59,.51-2.7,2.42-4.75,1.72-.11-.15-.33-.32-.37-.53-.32-1.5-1.11-2.06-2.72-1.95-1.55,.1-3.13-.27-4.77-.44-.25-.56-.55-1.22-1.07-2.37-.94,1.83-1.66,3.22-2.38,4.61,.83,.32,1.6,.61,2.41,.92,.29-.42,.51-.74,.73-1.07,.21-.32,.41-.64,.66-1.02,.61,.19,1.13,.36,1.66,.52,.07,.72,.13,1.35,.18,1.98,.09,1.03-.07,1.99,.93,2.92,.98,.91,.38,2.66-.84,3.44-1.15,.74-2.33,1.39-3.94,.94-.22-1.01-.45-2.06-.73-3.33-.65,.9-1.16,1.6-1.98,2.74-.59-3.22-2.94-1.68-4.4-2.39-.11-.73-.21-1.43-.32-2.14-.21,0-.42,.02-.64,.03-.41,2.27-.49,4.54,.02,7.44,1.13-.99,1.85-1.63,2.86-2.52,.58,.27,1.38,.63,2.18,1.01,.82,.39,1.64,.79,2.61,1.26-1.28,.81-2.28,1.44-3.35,2.11-.81,0-1.13-2.05-2.44-.72,.12,.66,.24,1.34,.38,2.13-1.29,.15-2.45,.28-3.64,.42-.17,1.49-.33,2.85-.51,4.32-1.91-.51-3.48-.93-4.93-1.31-1.17,1.65,.55,1.99,1.09,3.15-1.54,.35-1.92,1.47-2.15,2.79-.08,.47-.75,1.02-1.27,1.19-1.25,.42-2.56,.64-3.8,.94-.44,1.32,.9,2.72-.29,3.92-.18,.05-.34,.15-.48,.12-2.47-.57-4.81-.24-7.23,.52-.87,.27-2.52-.29-3.07-1.03-1.02-1.36-2.38-1.58-4.11-2.37,.33,1.38,.57,2.34,.8,3.3,2.45-.37,3.53,.36,4.08,2.67-.87,.96-1.74,1.92-2.94,3.23,1.3,.36,2.08,.57,3.06,.84-.27,.7-.54,1.38-.84,2.14-1.46-.56-2.02-1.44-2.2-2.68-.06-.38-.36-.98-.62-1.02-1.14-.15-2.31-.16-3.47-.17-.18,0-.36,.25-.66,.47,.48,.36,.89,.67,1.36,1.02-.3,.89-1.44,1.73-.07,2.69,.27,.19-.05,1.23-.1,1.76-1.24-.38-2.19-.67-2.89-.89-.98,.79-1.74,1.41-2.57,2.09-.08,.47-.18,1.08-.31,1.83-1.24,.06-2.42,.09-3.58,.19-.34,.03-.7,.2-1,.4-.7,.46-1.36,.97-2.22,1.6,.04,1.12-.45,2.19-1.84,2.67-.39-.56,.18-1.7-.7-1.76-1.14,1.02-2.09,1.86-3.26,2.91-.88-1.97-1.65-3.69-2.48-5.54-.64,1.11-.75,2.34-.08,3.32,1.44,2.12,1.56,4.3,.81,6.91,.84-.08,1.85,.11,2.27-.3,.6-.58,1.07-.78,1.85-.73,1.03,.07,1.03-.77,1.09-1.49l-.08,.07c.31-.06,.8-.01,.89-.18,.75-1.39,1.99-2.09,3.27-2.91,1-.65,1.92-1.19,3.07-1.54,.84-.25,1.53-1.05,2.28-1.61,.35-.26,.74-.79,1.04-.74,.98,.17,1.62,.04,2.17-.91,.47-.81,1.73-.15,2.43-1.21,.61-.93,2.1-2.03,2.98-1.87,2.15,.4,3.54-.22,4.89-1.75,.49-.56,1.35-.8,2.07-1.15,1.19-.58,2.4-1.12,3.63-1.69,.11-.85,.22-1.69,.35-2.65h1.99c.79-1.3,1.47-2.42,2.17-3.57,2.22,.43,3.96-.13,5.43-1.57,1.12-1.09,2.7-1.92,3.36-3.22,.72-1.42,1.42-2.39,3-2.53,.22-.77,.42-1.43,.62-2.13,1.25-.3,2.39-.56,3.49-.82,.23-.95,.44-1.78,.67-2.72,.72,.06,1.32,.1,1.72,.13,1.61-1.3,3.08-2.52,4.59-3.69,1.52-1.17,3.43-1.69,4.72-3.36,.77-.99,1.89-2.08,3.5-2.22,1.66-.15,1.83-.49,1.89-2.12,.03-.65-.47-1.45,.62-1.94,.17,.19,.36,.4,.53,.62,.7,.9,1.68,1.13,2.33,.41,.93-1.03,2.04-2.05,2.54-3.29,.41-1.03,1.1-1.38,1.7-1.06,.99,.53,1.44,0,2.05-.49,1.23-.97,2.49-1.9,3.73-2.86,1.01-.79,2-1.6,3.24-2.6-1.73-.42-3.08-.74-4.64-1.12-.95,.97-2.03,2.06-3.13,3.19-1.22-1.93-.99-3.13,.71-3.72,.68-.24,1.24-.4,1.73-1.03,.6-.77,1.47-1.05,2.53-.54,1.02,.49,1.86,.33,2.54-.89,.42-.76,1.16-1.8,2.54-1.51,.22,.94,.44,1.89,.64,2.74,1.15-.28,2.04-.49,3.12-.75-.45-.38-.85-.73-1.26-1.08,1.04-1.7,1.64,.3,2.57,.27,.24-1.91,1.36-2.77,3.18-2.95,.58-.06,1.11-.53,1.66-.81l-.08,.07Zm100.23,75.84c-.47,.61-.84,.76-1.47,.06-.42-.47-1.29-1.1-1.69-.95-1.84,.7-3.16-.11-4.58-1.06-.7-.47-1.6-.74-2.44-.86-2.54-.35-3.99-2.85-6.52-3.16-1-2.05-3.2-2.54-4.88-3.79,.87,1.37,.1,3.52,2.18,4.27,.11,.04,.22,.27,.21,.41-.12,1.63,1.32,2,2.28,2.32,.9,.3,1.34,.66,1.63,1.46,.18,.51,.43,1.01,.75,1.75,1.41,0,2.82-.02,4.24,.01,.55,.01,1.39-.03,1.58,.27,.73,1.16,1.76,.15,2.62,.46,.34,.74,.67,1.45,.84,1.84,1.29,.2,2.29,.36,3.44,.53,2.24-1.57,3.73-1.88,4.23-.71-.24,.48-.5,1.01-.98,1.97,1.85-.26,3.31-.47,4.9-.69,.7,.95,1.43,1.95,2.39,3.27,1.06-1.4,1.93-2.55,2.81-3.71,.93,1.9,1.78,3.61,2.8,5.68,.72-1.09,2.05,.31,2.95-1.18-1.5-.08-2.65-.32-3.31-1.71-.22-.45-1.14-.62-.79-1.44,.4-.93,1.21-.59,1.88-.44,.49,.11,.94,.43,1.39,.67,.53,.29,1.06,.87,1.58,.85,1.7-.05,2.48,.81,2.66,2.13,1.2,.63,2.2,1.15,3.25,1.71,.89-.88,.78-1.86-.27-2.28-1.8-.73-3-1.96-3.9-3.59-.41-.75-1.01-1.02-1.86-1.24-2.05-.51-4.19-1.02-5.24-3.39-.49,.52-.84,.91-1.04,1.12-1.42-.4-2.64-.74-3.93-1.1,.47-.4,.79-.68,1.17-1-1.34-.45-2.49-.83-3.66-1.22-.17,.61-.33,1.18-.57,2.02-.72-.65-1.25-1.14-1.83-1.67,.03,1.27,.08,2.47-1.32,2.99-1.3-1.66-2.43-3.28-2.74-5.32-.12-.81-.48-1.33-1.58-1.14,.34,1.52-1.37,2.4-1.53,4.2,1.16-.43,1.96-.72,2.58-.95,.57,.84,1.11,1.63,1.77,2.6Zm-130.99-7.81c.2-.28,.38-.46,.46-.67,.8-2.18,1.75-4.22,4.19-5.06,.64-.22,1.19-.67,1.81-.93,.85-.35,1.57-.74,1.74-1.77,.11-.67,.34-1.33,.52-1.99,1.44,.45,2.62,.01,2.5-1.12-.19-1.85,1.1-2.34,2.14-3.22,.69-.59,1.49-1.31,1.73-2.13,.42-1.41,.44-2.93,.68-4.88-1.02,.57-1.7,.96-2.45,1.38-.38-.22-.88-.51-1.41-.82-.33,.96-.6,1.73-.85,2.45-.91-.53-1.65-1.32-2.31-1.25-.77,.08-1.46,.91-2.19,1.43-2.07-.88-5.47-.68-5.7,.48,.29,.33,.63,.73,1.09,1.27-2.14,1.38-.28,2.76-.02,4.12-1.9,1.78-1.7,2.7,1.14,5.72-2.55,1.59-5.05,3.15-7.79,4.86-.31-.45-.52-1.08-.87-1.18-.5-.15-1.27-.09-1.65,.22-.51,.42-.59,1.27,.12,1.64,1.62,.86,.62,2,.62,3.15-1.69,.62-3.26,1.19-4.79,1.75q2.6,2.45,6.98,.29c-2.17-2.12,.36-3.37,.82-5.43,1.26,.61,2.29,1.1,3.48,1.67Zm37.07-10.16c.12-2.16,2.25-4.05,1.82-6.69-.06-.38,.29-.95,.62-1.24,.96-.82,.68-1.72,.25-2.6-.38-.77-.87-1.49-1.26-2.16-3.63,.24-5.43,1.27-5.9,3.33,.31,.05,.62,.14,.92,.14,1.28,0,1.9,.43,1.73,1.89-.09,.8,.38,1.65,.53,2.49,.11,.65,.1,1.32,.15,2.01-.61,.1-.94,.25-1.22,.18-1.07-.25-2.12-.57-3.5-.95-.1,.96-.19,1.81-.28,2.67q-1.3,.24-1.7-.93-.48-1.38-2.07-.79c-.07,2.26,2.84,3.3,2.31,5.78-.03,.14,.47,.37,.68,.59,.97,1.01,.92,1.91-.13,2.94-.58,.57-1.12,1.19-1.68,1.79,.11,.14,.22,.28,.33,.42,1.05-.68,2.1-1.35,3.04-1.95,.08-.27,.13-.34,.12-.42-.02-.48-.04-.96-.07-1.43q-.14-2.18,2.1-2.99c.22-.08,.41-.23,.6-.35,.74-.49,1.49-.98,2.62-1.73Zm46.47,.15c.46,.3,.9,.6,1.33,.89-.24,.74-.43,1.32-.65,2.01,.57,.16,1.05,.48,1.44,.39,1.43-.35,1.69,.29,1.6,1.53-.06,.76,.11,1.53,.19,2.5,.85-.9,.82-2.25,2.3-2.15,1.64,.11,1.47,1.5,1.81,2.7,1.57-2.81,2.86-3.25,5.96-2.25,.29,.85,.57,1.68,1,2.96,1.08-1.12,1.82-1.88,2.62-2.7,1.02,.37,2.31,.26,2.58,1.9,.07,.41,.97,.68,1.61,1.08,.43-2.24,.42-2.22-1.13-3.05-.39-.21-.75-.54-1.03-.89-1.39-1.66-1.38-1.66-3.25-.79-.67-.53-1.42-1.55-1.98-1.46-1.26,.2-1.69-.63-2.42-1.17-.42-.31-1.15-.8-1.39-.65-1.67,1.05-2.63-.16-3.75-.99-.42-.31-.92-.51-1.27-.69-.85,.38-.62,1.99-1.79,1.38-1.54-.8,.69-1.3,.26-2.16-1.3-.18-2.64-.38-4.03-.57v2.2Zm109.1,36.84c-.27,.77-.31,1.55-.73,1.96-1.01,1.01-.7,1.73,.14,2.54,2.02-.52,1.07-2.78,2.31-3.65,2.47,.31,1.97,2.5,2.58,4.27,1.57-.45,3.06-.87,4.27-1.22,.8-.98,1.44-1.77,2.29-2.82-.03-.63-.08-1.61-.14-2.86-.98,.77-1.64,1.29-2.25,1.77-1.46-1.45,.27-2,.57-3.09-1.19-.07-2.32-.45-3.16-.11-1.96,.8-3.69,.19-5.15-.22-1.01,.34-1.73,.55-2.44,.82-.83,.32-1.11,.98-1.23,1.92,.93,.22,1.69,.4,2.92,.69ZM25.12,71.53c-.04-1.71,.54-2.7,1.74-3.46,.69-.44,1.39-1.14,1.67-1.88,.4-1.04,1-1.51,2.03-1.75,.92-.21,1.91-.47,1.97-1.92-1.42-.34-1.56-1.73-2.04-3.39-.56,1.07-.88,1.69-1.49,2.86-.33-.8-.54-1.3-.74-1.8-.2,.12-.4,.24-.6,.35,.09,.43,.04,.98,.29,1.26,1.09,1.23,1.1,2.23-.24,2.95-.95,.51-1.97,1.09-3.16,.46-.27-.14-.68-.02-1.43-.02,.69,.62,1.09,.98,1.59,1.43-.87,.85-1.62,1.58-2.5,2.43-.4-.42-.76-.8-1.05-1.11-1.3,1.24-2.53,2.56-3.92,3.69-1.43,1.17-2.42,2.95-4.72,3.19,.55,.73,.95,1.27,1.43,1.89,.55-.6,.97-1.04,1.35-1.46,.62,.22,1.12,.4,1.76,.63,1.41-1.89,2.78-3.71,4.1-5.47,.8,1.39,2.37,.71,3.96,1.11Zm-15.89,10.33c-.37-1.64,.36-2.63,1.53-3.29,1.05-.59,1.2-1.32,.62-2.53-.93,1.09-1.77,2.06-2.61,3.05-.97,1.13-2.02,2.14-3.63,2.2-.87,.04-1.25,.47-1.32,1.35-.12,1.53-.59,2.99-1.8,4-.59,.5-1.17,.91-.93,1.71,.17,.6,.58,1.13,.89,1.71-.97,1.17-1.39,2.39-.41,3.84,.86-1.03,1.63-1.93,2.36-2.86,.13-.16,.12-.47,.09-.7-.22-1.79,.61-2.85,2.35-3.19,.27-2.12-.02-4.42,2.85-5.29Zm259.86,32.05c0,.9-.39,2.17,.08,2.87,1.04,1.56,2.2,3.26,4.44,3.26,.4-.33,.79-.66,1.2-.99,1.17,1.59,5.04,3.59,6.14,3.13-.03-.55-.06-1.15-.09-1.83-.92-.09-1.72-.26-2.5-.22-.81,.04-1.65,.27-2.03-.71-.39-1.01,.79-1.01,1.11-1.57,.05-.1-.05-.28-.08-.42-1.54-.55-2.92-.31-4.19,1.1-1.32-2.65-.8-3.87,1.78-4.98,.3-1.19,.59-2.38,.93-3.74-.45,0-.95-.1-1,.01m-223.04-15.66c.31,.64,.6,1.24,.87,1.8-2.11,1.77-2.76,1.89-4,.91-.83,.59-1.63,1.15-2.32,1.64,.7,.94,1.39,1.87,2.3,3.09,.29-1.09,.48-1.81,.72-2.7h3.27c.27-.87,.28-1.87,.72-2.13,1.04-.63,1.08-1.46,1.09-2.44,0-.39,0-.88,.21-1.15,1.62-2.04,2.92-4.55,6.65-4.27-1.94-1.56,.72-2.85-.57-4.37-.44,0-.99-.03-1.53,0-.52,.04-1.04,.14-1.98,.28,1.12,.8,1.14,1.55,.61,2.38-.51,.79-.8,2.13-1.46,2.34-1.91,.6-2.83,1.87-3.49,3.57-.15,.39-.64,.64-1.09,1.05ZM126.11,56.89c1.03,1.32,2.45,2.32,2.54,3.44,.16,1.91,1.12,1.62,2.25,1.71,.02-.26,.04-.34,.02-.41-.05-.14-.12-.29-.21-.41-1.19-1.5-1.12-1.94,.5-2.86,.46-.26,.92-.53,1.66-.96-1.65-.81-1.79-2.06-1.7-3.45,.03-.44-.33-.9-.51-1.36-.23,1.76-1.96,1.1-2.77,2.03,.28,1.25-.49,1.99-1.78,2.26Zm-83.15,2.59c.45,.06,.89,0,1.21,.17,1.28,.66,1.42,1.77,.22,2.67-1.08,.81-.5,1.64-.42,2.83,1.44-1.27,2.74-2.29,4.53-1.63,.61-1.24,1.16-2.36,1.81-3.69-.74-.4-1.61-1.21-2.02-1.02-1.22,.56-2.1,.06-3.1-.4-.93-.43-1.7-.22-2.22,1.07Zm98.54,27.11c1.15,0,2.17,.04,3.19-.02,.34-.02,.87-.2,.98-.45,.53-1.17,1.51-1,2.46-.97,1.11,.04,2.23,.11,3.59,.17-.6-.7-1.09-1.09-1.31-1.59-.21-.5-.15-1.13-.23-1.97-1.88,2.14-3.57,3.65-5.88,1.09-.36,.44-.7,.85-1.04,1.27-.75-.35-1.41-.66-2.35-1.1,.21,1.26,.36,2.18,.6,3.57Zm100.73,31.26c-1.14-.42-2.02-.87-2.95-1.04-.93-.17-2.15-.52-2.28,.98,.75,.91,1.42,1.73,2.12,2.58,.47-.18,.96-.37,1.36-.52,.52,.48,.94,.87,1.6,1.48,.41-1.67,.74-3.02,1.05-4.38,.01-.06-.18-.16-.32-.28-.21,.43-.4,.82-.59,1.19Zm-.07-4.29c-1.8-1.61-3.51-3.15-5.44-4.88-.26,.7-.41,1.11-.54,1.48,1.88,1.4,2.29,1.95,2.62,4.23,.16,1.05,.78,1.21,1.61,1.38,.58-.73,1.11-1.39,1.75-2.21ZM81.37,72.36c1.51-.9,3.29-1.52,3.59-3.53,.79-.05,1.41-.08,1.99-.11,.84-2.33,.83-2.72-.06-4.29-.91,1.49-1.82,2.94-2.69,4.41-.83,1.41-1.92,2.24-3.67,1.89-.28-.06-.62,.19-1.07,.34,.78,.52,1.35,.91,1.92,1.3Zm-18.77,34.24c-3.49-.74-4.71-.11-6.87,3.62,.95-.21,1.99-.12,2.36-.58,.89-1.08,2.03-1.2,3.2-1.33,.98-.11,1.42-.56,1.31-1.71Zm-41.19-20.03c.56-.78,1.03-1.5,1.57-2.17,.49-.61,2.02-.76,.89-2.06-.53,.11-1.11,.42-1.52,.27-.51-.18-.88-.74-1.53-1.35-.06,1.14-.11,1.96-.18,3.26-1.08-.67-1.84-1.15-2.76-1.72-.08,2.63,2.74,2.13,3.52,3.77Zm125.41-8.97h-4.09c-.16,1.07-.29,1.97-.41,2.77,1.36,.09,2.5,.17,3.75,.25,.79-.67,1.32-1.55,.75-3.02Zm-20.5,11.75h1.75c.31-.88,.36-2.05,.92-2.39,1.23-.76,1.06-1.75,1.1-2.79-.71-.51-1.4-1.21-2.11-.4-.39,.44-.55,1.27-.47,1.88,.18,1.34,.57,2.64-1.2,3.71Zm153.73,.39q-1.67,3.43-1.06,5.43c.74-.67,.27-2.19,1.68-2.4,.15-.02,.3-.52,.31-.8,.03-1.23,.01-2.47,.01-3.93-.89,.28-1.47,.46-2.69,.83,.84,.42,1.33,.67,1.75,.88ZM87.27,53.29c1.04,.37,1.68,.6,2.44,.87,.3-1.88,2.65-3.1,1.14-5.35-1.16,1.45-2.22,2.78-3.58,4.48Zm97.62,50.75c-2.27-1.05-2.45-3.71-4.72-4.38-.68,3.32,1.24,4.38,4.72,4.38Zm-112.7-28.92c1.9,.64,1.87,.61,4.59-1.86,.72-.66,1.24-1.19,.42-2.2-.79,.41-2.06,.64-2.34,1.29-.54,1.25-1.19,2.22-2.67,2.77Zm121.1,20.01c-.14,.13-.27,.27-.41,.4,.74,.85,1.33,1.96,2.26,2.48,1.03,.57,.19,2.71,2.27,2.25,.25-.53,.55-1.14,.76-1.58-1.72-1.25-3.3-2.4-4.88-3.55Zm-113.74-27.88c-.3-.76-.6-1.54-1-2.58-.71,.66-1.07,1.07-1.5,1.38-.46,.33-.99,.56-1.54,.86,.76,.7,1.36,1.26,1.95,1.81,.68-.48,1.28-.9,2.09-1.47ZM6.51,99.35c-2.32,.11-4.11,1.3-5.11,3.41,1.67,.88,2.42-.58,3.38-1.41,.63-.54,1.11-1.27,1.73-2Zm109.92-31.35c-2.62-.18-1.93,1.76-2.59,2.62-.62,.82-.71,1.92,.53,2.9,.67-1.81,1.3-3.5,2.05-5.52Zm-48.18,8.21c-.23-.08-.46-.16-.69-.25-.49,.98-2.23,.97-1.87,2.6,.25,1.14,1.16,1.01,2.32,1.09,.08-1.25,.16-2.34,.23-3.44Zm190.24,41.19c-.69,.75-.84,1.34-.65,2.21,.4,1.81,.2,1.94-1.78,1.65-.22-.03-.45,.02-.72,.04,1.65,1.68,1.87,1.62,4.3-1-1.61-.4-.35-1.82-1.15-2.9Zm6.57,4.81c.74-.41,1.39-.86,2.1-1.15,.58-.23,1.26-.19,1.83-.44,.24-.1,.31-.61,.58-1.21-1.45,.37-2.62,.45-3.55,.97-1.03,.57-2.28-1.32-3.08,.32,.76,.54,1.47,1.05,2.12,1.51ZM116.34,67.23c.16,.11,.31,.22,.47,.33,1.01-.62,2.01-1.24,3.4-2.09-1.37-.45-2.23-.73-3.39-1.1-.17,1.02-.33,1.94-.48,2.87Zm19.63,6.73c-.14-.11-.27-.21-.41-.32-.58,.46-1.17,.93-1.77,1.41,1.11,1.45,1.83,2.4,2.8,3.68,.16-1.26,.82-2.16-.44-2.8-1.11-.56-.36-1.29-.18-1.98Zm-3.96-9.4c.52,.44,.95,.8,1.42,1.2,.42-.58,.73-1.01,1.28-1.78-1.65-.13-2.92-.23-4.26-.34v2.35c.65-.6,1.08-.98,1.56-1.42Zm-47.51-7.41c-.48-.35-1.03-.75-1.59-1.15-.73,1.33,.8,3.23-1.23,4.18,1.27-.7,3.01-.86,2.82-3.02Zm-35.84,55.14c-.97,1.11-2.59,1.64-1.76,3.41,2.13-.69,2.36-1.1,1.76-3.41ZM132.67,43.38c-2.1-.69-2.67,.89-3.67,1.73-.16,.13,.09,.75,.16,1.26,1.31-1.12,2.41-2.05,3.51-2.99Zm-63.78,4.72c.08-.16,.15-.33,.23-.49-.53-.45-1.04-.94-1.6-1.35-.64-.47-1.23-.2-1.3,.63-.03,.36,.17,.75,.29,1.21h2.39Zm129.14,52.46c.03,.2,.06,.4,.09,.6,.75,.26,1.54,.82,2.3,.09,.34-.32,.32-1.02,.61-2.06-1.36,.62-2.18,.99-3,1.36ZM54.79,57.11c-.82-.08-1.49-.14-2.24-.21,.47,1,.86,1.85,1.42,3.03,.32-1.11,.55-1.89,.82-2.82Zm-14.36,11.35c-.62-.86-.8-1.97-2.17-1.93-.25,2.26-.18,2.33,2.17,1.93Zm-17.23-12.53c.82,.7,1.46,1.25,2.22,1.9,.16-2.49,.12-2.53-2.22-1.9Zm20.18,58.84c-.12-.15-.25-.31-.37-.46-.65,.26-1.3,.53-2.32,.94,.87,.64,1.39,1.03,2.04,1.51,.26-.81,.45-1.4,.64-1.99Zm219.04,9.29c-.1,.16-.19,.32-.29,.48,.41,.63,.81,1.25,1.45,2.24,.33-1.01,.54-1.62,.81-2.46-.82-.11-1.4-.19-1.98-.26Zm18.37-49.37c-1.44,.83-1.47,1.18,0,2.82v-2.82Zm-134.88,28.56c.26-.77,.49-1.47,.79-2.39-.89-.06-1.61-.11-2.58-.18,.73,1.05,1.22,1.75,1.78,2.57ZM60.03,44.73c-1.5,.29-1.23,1.11-1.03,2.02,1.7,.03,1.35-.92,1.03-2.02Zm215.89,47.87c.52-.88,1.01-1.69,1.52-2.55q-1.52,0-1.52,2.55ZM85.98,56.2h2.2c-.45-.78-.79-1.36-1.32-2.28-.34,.88-.54,1.4-.88,2.28Zm46.13,20.78c-.58,.79-.49,1.52-.06,2.59,.6-.69,1.03-1.18,1.5-1.72-.52-.31-.91-.55-1.44-.87Zm-90.19-12.47c-.06-1.12-.1-1.75-.14-2.67-.75,.4-1.23,.65-1.9,1.01,.67,.54,1.12,.91,2.05,1.66Zm96.16,30.65c-.96,.11-1.7,.19-2.86,.32q1.99,1.37,2.86-.32Zm24.25-13.28c-.13,1.88,.88,1.87,2.29,1.64-.81-.58-1.45-1.04-2.29-1.64Zm39.33,21.82c.18-.1,.37-.2,.55-.3,.14-.53,.28-1.06,.42-1.59-.14-.1-.28-.21-.43-.31-.39,.35-.94,.63-1.12,1.06-.11,.25,.37,.75,.58,1.14Zm-162.61,8.68q-1.6-.13-1.59,1.69c.56-.59,1.05-1.11,1.59-1.69Zm95.46-58.49c-.02,.25-.04,.5-.06,.74,.79,.9,1.54,.87,2.67-.6-1.15-.06-1.88-.1-2.61-.14Zm-43.96,8.47c-1.76,.93-1.77,.96-.77,2.39,.25-.79,.48-1.49,.77-2.39Zm33.17-17.67c.69,.77,1.04,1.16,1.56,1.75,.22-.76,.38-1.29,.61-2.09-.75,.12-1.23,.2-2.17,.34Zm-34.1,10.48c-.45,.73-.71,1.16-1.11,1.8,.72,.1,1.14,.15,1.78,.24-.23-.69-.38-1.16-.67-2.04Zm38.07,13.47q1.09-1.02,.32-2.23c-.13,.93-.23,1.58-.32,2.23Zm9.99,15.63c.66,.61,1.04,.95,1.55,1.42,.22-.61,.35-.94,.53-1.42h-2.08Zm-17.64-10.52c-.93,.66-.94,1.32,0,2.49v-2.49Zm11.28-22.93c-.63-.42-.95-.82-1.18-.76-.37,.09-.71,.43-.98,.74-.05,.05,.32,.66,.44,.64,.48-.09,.92-.31,1.73-.61Zm-11.8,45.39q.74-1.83-.93-1.77c.34,.66,.64,1.22,.93,1.77Zm28.38-28.72c-.16,.15-.31,.29-.47,.44,.43,.48,.86,.97,1.52,1.7,.21-1.45-.06-2.07-1.05-2.14Zm-45.79-22.7q-1.76,.11-1.46,1.58c.49-.53,.91-.98,1.46-1.58Zm39.94,47.96c-.22,0-.44,0-.67,0-.13,.7-.72,1.48,.79,2.3-.06-1-.09-1.65-.13-2.3Zm16.42-9.7c-.85,.73-.97,1.36,0,2.27v-2.27ZM45.91,57.59c.34,.71,.78,1.02,1.41,.41,.13-.12,.19-.52,.1-.61-.57-.59-1.07-.36-1.51,.21ZM4.26,97.46c-.57-.8-1.12-.98-1.78,0h1.78Zm27.82-28.81q1.56-.02,1.29-1.52c-.47,.56-.81,.95-1.29,1.52Zm90.14-20.44q.46-1.68-.66-1.79c.17,.47,.32,.88,.66,1.79Zm157.45,35.3c-.38-.26-.74-.6-.83-.54-.28,.18-.53,.5-.65,.82-.04,.1,.47,.57,.57,.52,.31-.14,.53-.45,.91-.8Zm-219.41-9.23c.18,.13,.35,.25,.53,.38,.24-.37,.47-.74,.69-1.12,0-.01-.3-.24-.32-.22-.31,.31-.6,.64-.9,.96Zm101.92,3.69c.25-.03,.49-.05,.74-.08-.14-.54-.29-1.08-.43-1.62-.16,.03-.32,.07-.48,.1,.06,.53,.12,1.07,.18,1.6Zm-42.28,1.2c.66,.79,1.21,.8,1.65-.35-.72,.15-1.18,.25-1.65,.35Zm157.26,7.24c-.93-.91-1.44-.82-1.93-.35-.06,.06,0,.25,0,.5,.5-.04,1-.07,1.94-.14ZM50.83,64.66c-.11-.18-.23-.36-.34-.54-.25-.1-.52-.3-.73-.26-.23,.05-.41,.34-.61,.52,.27,.18,.52,.46,.82,.51,.26,.05,.57-.15,.86-.24Zm223.02,25.57c-.19-.03-.37-.06-.56-.1-.11,.52-.22,1.03-.33,1.55,.16,.04,.33,.08,.49,.12,.13-.52,.27-1.05,.4-1.57Zm-102.27,11.77c.03,.07,.03,.17,.09,.21,.04,.03,.16,.03,.2,0,.41-.35,.82-.71,1.28-1.12-1.05-.38-1.68-.3-1.56,.91Zm15.17,3.1c.16,.01,.32,.02,.48,.03,.03-.53,.06-1.05,.1-1.58-.14,0-.28-.01-.42-.02-.05,.52-.1,1.05-.15,1.57ZM78.19,58.14c-.08,.26-.17,.51-.25,.77,.42,.11,.83,.24,1.26,.31,.04,0,.23-.54,.21-.55-.39-.2-.8-.36-1.21-.53Zm-35.97,7.3c.35,.38,.53,.57,.72,.77,.18-.19,.43-.35,.5-.57,.04-.14-.18-.52-.29-.52-.24-.01-.48,.16-.93,.33Zm233.49-2.97c-.02,.17-.03,.34-.05,.51l1.77,.23c.02-.2,.04-.41,.06-.61-.59-.05-1.18-.09-1.78-.14Zm-123.78,30.74c-.17-.25-.26-.51-.43-.58-.13-.05-.35,.14-.54,.23l.37,.73c.18-.11,.36-.23,.6-.38Zm104.52,21.21c.08-1.28-.33-1.5-1.58-1.54,.65,.63,.97,.95,1.58,1.54Zm.67,9.83c-.04,.11-.07,.22-.11,.32,.22,.12,.42,.32,.65,.34,.22,.03,.47-.12,.7-.19-.02-.13-.04-.26-.06-.39-.4-.03-.79-.06-1.19-.09Z" fill="#2c1c12"/><path d="M63.27,173.51c-.18,.99-.29,2.52-.74,3.95-.96,3.02-3.02,5.03-6.13,5.81-2.44,.61-4.91,.63-7.31-.17-4.34-1.45-6.59-5.46-6.31-11.16,.25-4.94,2.75-8.35,7.16-9.22,1.91-.37,4-.38,5.92-.05,3.89,.67,6.54,3.69,7.16,7.69,.13,.86,.15,1.75,.26,3.14Zm-17.1-1.02c-.11,.15-.23,.3-.34,.45,1.11,.96,2.22,1.92,3.39,2.92-.56,.59-1.1,1.17-1.88,1.99,1.29-.09,2.2-.16,3.08-.22,.07,.44,.12,.74,.17,1.05,.85-.28,1.62-.54,2.39-.79,.26,.93,1.09-.32,1.51,.43,.68,1.22,1.14-.63,1.94-.21,.55,.28,1.31,.16,2.46,.26-1.04-.97-1.7-1.57-2.34-2.17,1.4-.67,2.67-1.28,4.09-1.96-1.85-1.12-3.44-.04-5.11-.01,.78-1.92,2.61-3.27,2.72-5.9-1.45,1.15-2.59,2.05-3.79,3-.33-2.11-.64-4.05-1.01-6.38-1.46,2.46-1.39,4.83-1.57,7.31-1.54-1.85-2.89-3.46-4.24-5.07-.17,.09-.34,.18-.51,.28,.62,1.82,1.25,3.63,1.91,5.55-1.02-.18-1.93-.34-2.85-.51Z" fill="#2c1c12"/><path d="M168.6,174.73v-12.03h4.07v20.44c-.24,.13-.37,.24-.51,.27-2.59,.55-4.26-.3-5.55-2.77-1.81-3.46-4.07-6.69-6.14-10.01-.42-.67-.86-1.31-1.75-1.91-.02,2.4-.04,4.81-.05,7.21,0,2.39,0,4.78,0,7.36h-4v-20.77c1.62,0,3.12,.02,4.61,0,1-.02,1.34,.74,1.77,1.4,1.95,3.02,3.89,6.05,5.84,9.07,.41,.64,.88,1.24,1.33,1.86,.13-.04,.25-.08,.38-.13Z" fill="#2c1c12"/><path d="M76.58,176.02v7.35h-3.97v-20.84c1.27,0,2.51,0,3.75,0,2.08,0,4.15-.02,6.23,0,3.45,.03,5.57,1.41,6.51,4.2,1,2.96-.04,6.08-2.68,8.03-.25,.18-.51,.36-.93,.66,1.2,2.59,2.39,5.15,3.69,7.95h-4.63c-.74-1.56-1.56-3.27-2.36-4.98-1.45-3.08-1.71-3.2-5.61-2.36Zm.13-9.92v5.99c1.92,0,3.74,.09,5.54-.03,1.79-.11,2.89-1.28,2.95-2.87,.07-1.68-1.03-2.92-2.98-3.07-1.74-.13-3.49-.03-5.51-.03Z" fill="#2c1c12"/><path d="M116.98,166.17c-1.37,.74-2.48,1.34-3.64,1.98-1.71-1.71-3.64-2.67-6.06-2.36-2,.25-3.48,1.23-4.22,3.09-.97,2.46-1.08,5.02-.12,7.5,1.52,3.92,7.25,4.71,9.9,1.42,.18-.22,.22-.56,.4-1.05-1.57-.1-2.96-.18-4.47-.28v-2.89h9.12c.57,2.59-.01,4.85-1.83,6.79-3.1,3.3-8.19,4.27-12.37,2.37-4.16-1.89-6.52-6.37-5.93-11.29,.56-4.71,3.06-8.01,7.07-8.99,4.57-1.11,8.71-.49,12.14,3.7Z" fill="#2c1c12"/><path d="M126.34,183.35c2.48-6.94,4.9-13.76,7.37-20.68h4.63c2.43,6.74,4.89,13.61,7.44,20.69h-4.41c-.53-1.37-1.07-2.77-1.63-4.21h-7.27c-.53,1.43-1.02,2.76-1.56,4.2h-4.57Zm12.44-7.42c-.89-2.67-1.67-4.99-2.45-7.32-.17,.02-.33,.04-.5,.06-.73,2.37-1.74,4.65-2.23,7.26h5.18Z" fill="#2c1c12"/><path d="M214.98,166.28c-1.11,.62-2.22,1.24-3.41,1.9-1.64-1.41-3.49-2.16-5.7-1.97-2.32,.2-3.92,1.33-4.71,3.49-.77,2.09-.79,4.25-.04,6.35,1.15,3.25,4.45,4.64,7.87,3.37,.67-.25,1.29-.62,2.1-1.02,1.09,.5,2.3,1.04,3.53,1.61-2.24,3.3-7.1,4.57-11.53,3.18-4.49-1.41-7.13-5.33-7.09-10.51,.04-5.07,2.47-8.57,6.82-9.84,4.86-1.41,9.85-.06,12.16,3.44Z" fill="#2c1c12"/><path d="M224.06,182.05c.54-1.21,.95-2.13,1.39-3.11,.76,.27,1.34,.57,1.95,.67,1.49,.25,2.99,.54,4.49,.57,2.29,.04,3.62-.86,3.93-2.39,.33-1.61-.67-2.93-2.96-3.76-1.57-.56-3.21-.96-4.79-1.5-.74-.25-1.51-.57-2.13-1.04-2.42-1.83-2.47-5.39-.16-7.27,3.04-2.48,9.53-2.6,12.93-.15-.29,.84-.59,1.72-.94,2.74-.79-.23-1.44-.51-2.12-.59-1.65-.2-3.31-.39-4.97-.42-1.01-.02-1.87,.49-2.07,1.62-.21,1.14,.44,1.83,1.38,2.25,.8,.36,1.64,.61,2.47,.89,1.21,.4,2.46,.7,3.63,1.19,2.31,.97,3.78,2.56,3.74,5.28-.05,2.76-1.23,4.75-3.76,5.86-2.44,1.08-5.01,.92-7.54,.5-1.45-.24-2.84-.84-4.46-1.34Z" fill="#2c1c12"/><path d="M186.73,183.36h-3.56v-20.66h3.56v20.66Z" fill="#2c1c12"/><path d="M4.26,97.46h-1.78c.66-.98,1.21-.8,1.78,0Z" fill="#2c1c12"/><path d="M212.3,79.93c1.19-.09,2.37-.18,3.9-.29,.05-.54,.11-1.22,.23-2.49-.79,.6-1.05,.86-1.36,1.02-1.71,.86-2.1,.43-2.76-1.36-.56-1.51,.39-2.89-.13-4.31-.06-.15,.42-.69,.7-.73,.22-.03,.78,.49,.74,.63-.35,1.13-.36,2.11,.63,2.98,.12,.1-.35,.88-.73,1.78,1.7-.8,2.61-1.48,2.33-3.16-.19-1.15,.23-2.21,1.17-2.94-1.35-2.21-3.86-2.48-5.93-3.45-.5-1.21,.79-1.39,1.24-2.21-1.12-1.59,1.45-3.97-1.49-5.4,.92-1.04,1.67-1.88,2.35-2.65-.31-.75-.63-1.48-.91-2.23-.4-1.09-1.32-1.13-2.14-.87-1.11,.35-2.03,.27-2.92-.54,.08-1.1,1.89-2.11,.13-3.35,.62-.42,1.12-.76,1.74-1.17,.31,.99,.59,1.87,.84,2.65,1.89,.74,2.71-.65,3.89-1.32-.51-1.66-1.84-2.23-2.93-2.93-.41-.26-1.28,.09-1.9,.28-.35,.11-.62,.6-.96,.63-.4,.04-.93-.12-1.21-.39-.16-.16-.07-.78,.12-1.05,.24-.35,.69-.56,1.05-.83-.6-2-2.45-1.66-3.62-2.17-.93-1.57,2.5-2.57,.24-4.28-1.4,1.26-2.98,2.07-4.74,1.64-.75-1.64-1.4-3.1-2.22-4.89,1.72-.2,3.13-.36,4.53-.52,.06,.19,.11,.38,.17,.57-.32,.18-.69,.3-.95,.55-.24,.24-.55,.65-.49,.92,.07,.3,.58,.77,.77,.71,.79-.24,1.79-.46,2.22-1.04,.35-.47,.2-1.57-.12-2.19-.32-.63-1.52-1.01-.87-1.9,.67-.92,1.56-.21,2.37,.11,.88,.35,1.85,.48,2.7,.88,1.78,.84,3.5,1.79,5.24,2.71,.2,.11,.45,.3,.49,.49,.41,2.24,1.93,2.39,3.86,1.88,.51,2.12,.6,4.04-.2,5.75-1.66,1.29-1.8-.94-2.96-.99-1.11-.05-2.2-.72-3.41-1.15-.18-.86,.59-2-.63-2.81-.91,1.85-.29,3.22,.91,4.52,1.33,1.45,3.82,2.25,5.79,1.79,.88,.71,1.77,1.43,2.91,2.35,0,.12,.06,.58,.05,1.04-.04,1.31,.52,2.17,1.87,2.34,.71,.09,1.25,.32,1.36,1.08,.22,1.63,.4,3.26,.63,5.16-1.15-.58-2.56,.02-3.01-1.66-.07-.27-1.17-.27-1.79-.4l-.27,.49c.59,.6,1.2,1.18,1.77,1.8,.51,.55,.93,1.18,1.45,1.72,.31,.31,.72,.55,1.12,.72,.99,.42,2,.78,2.99,1.17-.04,.16-.08,.31-.13,.47-.71-.1-1.42-.21-2.4-.35,.55,1.66,1.07,3.2,1.62,4.86,.66,.16,1.32,.32,1.96,.47,.56,1.62,1.09,3.14,1.72,4.94-1.26,.13-2.23,.22-3.29,.33-.36-1.41-.42-2.76-1.94-3.54-.88,2.43,1.27,3.93,1.35,5.96,.88,.33,2.45-1.25,2.49,.88-2.72,.89-3.03,1.6-1.98,4.63h2.74c.34,.47,.74,1.02,1.07,1.49,1.09,.19,2.88-1.44,3.51-2.97-1.41-1.61-2.77-3.18-4.18-4.8,1.86-.73,2.5-.6,3.38,.56,.74,.97,1.47,1.97,2.28,2.88,.17,.19,.71,.01,1.05,.1,.26,.07,.49,.29,.75,.46-1.33,1.63-3.17,2.7-3.84,4.71,1.01,.63,1.53,.16,1.99-.44,1.48-1.93,1.98-1.92,3.3,.08,.08,.12,.25,.18,.53,.37,.29-.25,.62-.53,.96-.82,.64,1.32,1.26,2.66,3.33,2.78-.48-.71-.95-1.2-1.17-1.79-.44-1.18-1.22-1.25-2.23-.92,.83-1.2-.28-1.87-.9-2.36-.81-.63-1.36-1.15-1.41-2.27-.03-.61-.62-1.2-1.05-1.97,1.37-.62,2.73-.52,4.08-.28q.81,1.97-1.08,2.96c.53,.57,1.03,1.1,1.7,1.81,.37-.75,.67-1.34,1.01-2.02h2.03c-.11,1.81,1.27,3,2.11,4.6-1.09,.59-1.93,1.35-1.72,2.56,.08,.45,.72,.8,1.39,1.48,.22-1.07,.34-1.64,.46-2.21,.14,0,.27,.02,.41,.03-.2,2.58-.4,5.15-.6,7.71,2.31,.66,2.51,.56,3.47-2,.19,1.09,.3,1.71,.43,2.47,1.12,.21,2.29,.43,3.75,.7,.05-.68,.1-1.5,.16-2.31-1.18-.71-2.55-.88-2.66-2.6-.1-1.62,1.62-1.87,1.76-3.27,1.1,.18,2.02,.34,2.89,.48,.76-.52,1.48-1.01,2.33-1.59,.43,1.46,.76,2.57,1.19,4.01-.99,.38-2.05,.8-3.25,1.26,.77,.79,1.53,1.66,.74,3.14,1.4,.18,2.53,.32,3.96,.51-.44,.93-.74,1.91-1.32,2.68-.33,.43-1.33,.88-1.67,.69-2.18-1.26-3.77,.71-5.67,.91-1,.11-1.83,.94-1.87,2.19-.03,.77-.54,1.31-1.25,1.03-1.75-.67-3.62-.52-5.32-.37-2.67,.23-3.62-1.46-4.66-3.2-.18-.3,.11-1.02,.38-1.41,.48-.7,1.12-1.29,1.75-1.99-.8-.62-1.52-1.19-2.33-1.82-.93,.12-1.94,.25-3.12,.41,.2,.59,.24,1.5,.61,1.65,1.89,.81,1.42,2.69,2.21,4.08-2.24,1.28-3.07-1.08-4.61-1.47-.26,.19-.58,.42-1.02,.75-.45-.31-.94-.65-1.53-1.06-.46,1.38-1.41,1.54-2.43,.9-1.6-1.01-.09-2.1,0-2.92-.65-.74-1.17-1.43-1.8-2.01-.3-.27-.88-.53-1.18-.41-.32,.13-.54,.69-.65,1.11-.1,.37,.03,.79,.02,1.19-.08,2.03-1.33,2.78-3.29,2.25-1.47-.39-3.04-.45-4.62-.45-.7-.75-1.42-1.61-2.74-1.29-2.23,.53-3.69-.76-5.1-2.17-1.99,1.46-4.15,.78-6.37,.66-.04-.87,.15-1.7-.16-2.21-.42-.68-1.22-1.13-1.9-1.62-.14-.11-.45,0-.95,.04,.75,.5,1.34,.89,1.94,1.29-1.54,1.62-2.73,1.52-4.06,.78-.81-.45-1.74-.71-2.6-1.07-.57-.24-1.14-.49-1.7-.78-.77-.4-1.53-.84-2.29-1.27-.91-.51-1.81-1.02-2.88-1.62v.96s0-.05,0-.05c-.39,.06-.87,.3-1.15,.15-1.92-1.02-3.8-2.11-5.68-3.21-.15-.09-.16-.42-.28-.75,.82-.29,1.61-.57,2.4-.85-.39-1.11-1-.52-1.59-.42-.74,.12-1.61,.35-2.25,.09-1.39-.57-2.72-1.32-3.94-2.19-.33-.24-.19-1.15-.28-1.89h2.09c.18-.49,.37-.99,.52-1.4,1.82-.07,2.45,2.37,4.27,1.85,1.64-.47,2.08,2.63,4.16,1.09-.66-.5-1.22-.93-1.95-1.48,1.02-.76,1.9-1.41,2.82-2.09,1.78,1.39-1.42,1.31-.45,2.59,.61,.6,2.44-1.15,2.65,1.24,2.45-2.73,5.11-3.4,8.23-1.51,.11-.64,.2-1.12,.31-1.77,.33,.29,.52,.41,.66,.58,.38,.46,.7,.97,1.11,1.4,.78,.8,1.61,1.55,2.58,2.47,.9-.63,1.72-1.55,1.23-3.13-1.09-.19-2.18-.39-3.28-.59-.02-.2-.05-.4-.07-.6,.83-.33,1.66-.66,2.69-1.07-.21-.62-.43-1.26-.75-2.17-.44,.56-.73,.93-1.15,1.46-.5-.1-1.1-.27-1.71-.32-.51-.04-1.03,.08-1.59,.14,.74-2.27,2.51-2.79,4.72-2.82-1.17-1.52-2.33-2.73-2.59-4.51-.08-.52-.75-.95-1.16-1.42-1.33-1.53-1.54-3.16-.07-4.39,1.05-.87,1.35-1.76,1.47-2.95,.03-.25,.35-.47,.54-.7,2.69,1.56,3.09,3.57,1.09,5.14,.38,.4,1.1,.82,1.06,1.18-.12,1.33,.5,2.25,1.18,3.26,.33,.5,.45,1.2,.49,1.81,.04,.67-.02,1.29,.83,1.48,.13,.03,.27,.2,.32,.33,.37,1.11,.72,2.24,1.12,3.49-.93,.24-1.79,.47-2.65,.69,2.59,.52,2.38,3,3.5,4.63,.23-.05,.52-.08,.8-.17,.21-.07,.4-.2,.81-.42,.13,.67,.24,1.22,.35,1.77,.68,.1,1.39,.2,2.38,.34,.17-.86,.36-1.76,.54-2.65,0,0-.06,.06-.06,.06Zm6.87-8.1c.52-.18,1.04-.36,1.56-.55-1.1-.79-1.69-.7-1.51,.61q-1.16,.13-.44,1.12c.14-.44,.26-.81,.38-1.18Zm-3.32-11.07c.31,.8,.73,1.38,.74,1.97,.04,1.98,1.51,2.99,2.66,4.22,.58,.62,1.2,.54,1.94-.03-.51-1.04-.98-1.99-1.44-2.95,.6-.35,1.18-.7,1.76-1.04l.04-.65c-2.32,.86-3.68-.02-4.31-2.14-.54,.24-.88,.39-1.38,.62Zm-12.63,30.07c1.51-1.03,3.65-1.28,4.41-3.81-2.27,.61-3.45,2.08-4.41,3.81Zm18.37-15.73c-1.92,.53-2.24,.96-2.03,2.37,.15,1.02,.55,1.61,1.87,1.04,.05-1.07,.1-2.19,.16-3.41Zm-4.63,12.61c-.43-.86-.83-1.59-1.17-2.34-.43-.95-.99-1.34-1.99-.71,.44,.72,.98,1.3,1.16,1.97,.27,1,.83,1.26,1.99,1.08Zm-33.04-2.65c1.32,.36,2.38,.65,3.41,.94-.42-1.39-.62-1.52-2.47-1.65-.63-.05-1.14,0-.94,.72Zm13.05,2.59q-3.55-.54-4.48,.44c1.66-.16,3.07-.3,4.48-.44Zm23.4,2.1q-.67-1.29-2.25-.74c.85,.28,1.44,.48,2.25,.74Zm-11.85-52.49c-.78-.22-1.4-.37-1.51,.55-.03,.23,.24,.69,.42,.72,.82,.14,1.07-.38,1.08-1.27Zm2.08,47.38c0,.18,0,.36-.01,.53,.53-.04,1.07-.07,1.84-.12-.34-.43-.49-.75-.61-.73-.41,.05-.82,.2-1.22,.32Z" fill="#2c1c12"/><path d="M129,38.9c-.41-1.3-.81-2.59-1.2-3.85,1.45,.18,2.23,.99,2.69,2.96,.82-.29,1.38-1.54,2.47-.77,.7,.49,1.38,1,2.15,1.56,.79-.55,1.61-1.11,2.51-1.74,1.5,1.69,1.96,4.2,4.04,5.48,1.01-1.79,.54-2.79-1.97-4.01,.04-.51,.06-1.07,.14-1.61,.05-.3,.22-.57,.48-1.21,.72,.54,1.43,.88,1.85,1.44,1.07,1.38,1.86,2.95,4.12,2.58,.51-.08,1.2,.89,1.9,1.46,.61-.31,1.23-.61,2.01-1.01,1.29,1.25,2.62,2.54,3.93,3.81,.09-.18,.25-.53,.49-1.02,.96,1.13,2.81,.79,3.39,2.41,.04,.11,.26,.22,.4,.22,2.32-.07,3.35,1.69,4.41,3.25,.9,1.33,2.29,2.05,3.36,3.15,.98,1,1.98,1.98,3.29,3.29-.56,.58-.93,.96-1.37,1.41-2.73-2.12-4.75-4.3-6.81-6.46-.91-.95-2.08-1.88-3.31-2.23-1.37-.39-2.19-1.16-2.99-2.17-.13-.16-.38-.21-.8-.43v3.26c-.93-.72-1.16-2.26-2.54-1.41-.12,.08-.57-.08-.61-.21-.53-1.58-1.89-1.07-2.98-1.15-.94-1.06-.26-3.1-2.31-3.43-.18,.59-.37,1.18-.57,1.82-2.44,1.11-4.86-.5-7.51,.2-.15-.92-.34-1.59-.36-2.26-.05-2.03-.97-2.69-2.85-1.96-.36,.14-.68,.41-1.02,.62-.32-.65-.48-1.44-.96-1.82-.4-.31-1.17-.13-1.78-.16-.58-.03-1.16-.05-1.74-.08l.05,.08Zm23.61,4.79c-.12-.19-.24-.38-.36-.56-.24-.13-.61-.43-.7-.36-.24,.19-.37,.53-.54,.8,.23,.12,.46,.34,.69,.35,.3,.01,.6-.14,.9-.22Zm-13.59-1.65c-.2,.07-.4,.14-.6,.2,.16,.37,.32,.74,.5,1.1,.01,.02,.36-.1,.36-.11-.07-.4-.17-.79-.26-1.19Z" fill="#2c1c12"/><path d="M183.19,77.9c-2.09,.21-2.94-1.36-4.06-2.51-.26-.27-.54-.84-.74-.81-1.49,.23-1.84-.95-2.44-1.93,.1-.57,.35-1.24,.32-1.9-.08-2.14-.07-2.23,1.75-3.09,.55-.26,1.13-.47,1.98-.82-2.56-1.63-.21-3.68-1.26-5.92,1.54,.58,2.56,.95,3.55,1.35,.65,.27,1.31,.55,1.91,.91,.57,.34,1.13,.73,1.61,1.18,.66,.63,1.16,1.44,1.87,2,1.15,.91,1.54,1.97,1.03,3.58-.48-.06-1.32,.03-1.43-.21-.96-2.05-2.63-1.32-4.14-1.17-.38,.04-.74,.24-1.14,.38,0,2.1,1.86,2.54,3.34,3.44-.98,.87-1.53,.98-2.26,.22-.55-.57-1.29-.97-2.1-1.56-.29,.88-.46,1.38-.67,2-.25-.13-.5-.17-.59-.32-.37-.65-.79-.92-1.66-.26,.63,.52,1.15,.95,1.6,1.32,.24,0,.39,.02,.53,0,.64-.1,1.32-.95,1.92-.1,.68,.99-1.13,.73-.86,1.64,1,1.19,1.93-.58,3.15-.14-.47,.38-1.01,.61-1.18,1-.19,.45-.04,1.03-.04,1.7Z" fill="#2c1c12"/><path d="M159.51,11.69c1.01,1.3,1.1,1.59,.89,2.62,.56-.1,1.06-.2,1.51-.28,1.4,1.63,3.32,2.32,5.21,2.91,1.87,.59,3.53,1.4,4.98,2.66-.09,.82-.42,1.35-1.22,1.09-1.57-.52-3.27-.89-4.62-1.78-1.31-.86-2.44-1.78-4.15-1.37-.31-.89-.56-1.62-.8-2.31-2.21-.13-4.36-.14-6.02-1.78-.11-.11-.29-.27-.39-.25-2.31,.63-3.52-1.88-5.61-1.98-.5-.02-.98-.63-1.7-1.13,1.71-.87,3.05-1.17,4.57-.39,1.12,.58,2.33,1.07,3.55,1.36,.75,.18,1.6-.09,2.41-.16,.02-.16,.03-.32,.05-.47-1.24-.82-2.49-1.64-3.96-2.6,1.17-.64,1.96-.15,2.8,.19,.86,.35,1.76,.62,2.65,.89,1.76,.52,3.53,.97,5.28,1.53,1.55,.5,3.07,1.1,4.54,1.63-.05,.79-.1,1.8-.16,2.82-.73-.12-1.66-.28-2.58-.43-.16-.03-.41,0-.45-.09-.66-1.49-2.47-1.36-3.37-2.31-1.12-1.2-2.05-.71-3.4-.35Z" fill="#2c1c12"/><path d="M151.44,35.68c-.34,2.28,3.29,1.64,2.35,4.16h-2.83c.24-1.98-.73-3.21-2.56-4.08-.41,.44-.88,.93-1.31,1.38-2-.3-3.04-1.43-3.52-3.36,1.14,.44,2.17,.83,3.45,1.32,.02-1.61-.98-2.16-1.72-2.68-1.53-1.08-2.44-2.53-3.09-4.22-.18-.48-.47-.93-.77-1.35-.56-.81-.61-1.57,.16-2.53,.45,.82,.81,1.49,1.28,2.34,.87-.06,1.8-.11,2.6-.17,.4,.8,.68,1.67,1.2,2.35,.91,1.19,1.98,2.25,2.95,3.4,1.25,1.48,2.69,2.29,4.71,2.68,2,.39,4.3,1.07,4.9,3.76,.13,.58,1.16,.94,1.75,1.43,.77,.65,1.61,1.26,2.22,2.03,.22,.28,.06,1.16-.24,1.48-.47,.51-1.03,.31-1.64-.19-1.71-1.41-3.34-2.78-4.49-4.79-.7-1.21-2.18-2.04-3.43-2.85-.48-.31-1.31-.1-2-.14Z" fill="#2c1c12"/><path d="M168.5,70.42c.59-3.2-.94-5.06-3.13-6.71-.19,.36-.3,.86-.62,1.09-.4,.29-1.11,.63-1.44,.47-1.3-.65-2.51-1.49-4.03-2.43,.78-.42,1.23-.71,1.71-.92,.43-.19,.9-.29,1.7-.54-.9-1.06-1.65-1.94-2.76-3.24-.4-1.4,1.88-1.69,2.2-3.11,1.41,.5,2.77,.85,4,1.48,.63,.33,1.01,1.14,1.54,1.78,.44-.16,.86-.32,1.35-.5,0,1.03,.18,2.02-.04,2.92-.39,1.59-.31,2.93,.91,4.17,.37,.37,.45,1.19,.39,1.78-.1,.98-.39,1.95-.69,2.9-.07,.23-.45,.36-1.11,.85Z" fill="#2c1c12"/><path d="M52.03,37.51c-.03,.53-.03,1-.08,1.47-.04,.3-.15,.59-.31,1.19-1.07-.55-2.01-1.04-3.04-1.57-.91,1.49-.69,2.64,.18,3.72,.56,.7,.48,1.26-.13,1.88-.36,.37-.68,.81-.91,1.28-.82,1.72-1.55,1.81-2.91,.31-.1-.11-.22-.21-.48-.45-.49,.58-.97,1.14-1.45,1.71-1.24-.05-2.5,.06-3.36-1.18-.11-.16-.71,.03-1.19,.06-.03,1.3,.77,2.89-1.37,3.33-.81-1.6-.02-3.17-.35-4.48,1.64-1.46,3.66,.82,5.18-1.08-.24-.41-.5-.84-.76-1.26,.03-.09,.06-.23,.09-.23,1.5,.01,2.1-1.37,3.19-1.96,.23-.12,.97,.71,1.87,1.39-.32-1.04-.53-1.7-.74-2.4,1.89-1.39,3.79-2.67,6.57-1.72Z" fill="#2c1c12"/><path d="M199.45,49.11c1.21,.24,2.35,.47,3.64,.72-.25,2.05,.92,3.44,2.08,4.81,.6,.7,1.17,1.33,.41,2.27-.13,.16-.26,.57-.19,.62,1.62,1.35-.02,2.28-.68,3.52-.68-1.16-1.36-2.33-2.09-3.59,.26-.57,.54-1.19,.83-1.83q-1.63-.28-3.33,.79c.1-1.44,.96-2.29,1.78-3.32-1.3-.33-2.56-.65-4.15-1.05,.7-.58,1.27-.87,1.54-1.34,.23-.39,.12-.99,.17-1.6Z" fill="#2c1c12"/><path d="M178.37,42.72c-.83-.62-2.06-1.01-1.18-2.36q1.1,.8,3.51,.8c-.08,.46-.06,.94-.26,1.31-.47,.87-.29,1.69,.48,2.06,1.41,.69,1.42,2.11,2.32,3.4-1.32-.56-2.34-.95-3.32-1.41-1.7-.79-2.02-1.55-1.54-3.79Z" fill="#2c1c12"/><path d="M156.87,52.99c.82,1.03,1.57,1.97,2.46,3.08-1.75,1.04-1.53,3.03-2.16,4.83-1.08-.89-1.9-1.56-2.91-2.4,2.57-1.01,.63-3.79,2.61-5.51Z" fill="#2c1c12"/><path d="M25.67,53.1c.06-.64,.16-1.27,.15-1.91-.02-1.07,.59-1.57,1.51-1.86,.68-.21,1.44-.33,2-.73,.48-.34,.72-1.02,1.08-1.54,1.19,.71,1.46,1.07,1.02,2.12-.66,1.57-1.8,2.21-3.28,2.67-.89,.27-1.72,.76-2.57,1.16,0,0,.08,.08,.08,.08Z" fill="#2c1c12"/><path d="M198.21,58.46c-.88-.38-1.73-.75-2.57-1.12-.72,.31-1.41,.6-2.15,.91-.65-1.12-.59-1.98,.36-2.63,1.28-.88,3.29-.73,4.43,.31,.87,.79,.81,1.61-.06,2.53Z" fill="#2c1c12"/><path d="M175.99,27.61c-3.62,.98-6.88,.97-8.97-2.84,1.89-.55,3.05,.99,4.52,1.43,1.49,.44,2.96,.93,4.45,1.4Z" fill="#2c1c12"/><path d="M173.7,78.44c-1.32-.49-2.35-1.01-2.81-2.22-.41-1.08-.08-1.71,1.01-1.91,.53-.1,1.1-.04,1.65-.01,1.89,.09,2.01,.33,1.12,2-.33,.62-.58,1.28-.97,2.15Z" fill="#2c1c12"/><path d="M147.72,26.5c1.6-.27,2.92-.7,3.79,.2,.96,1,1.04,2.41,.34,3.91-.41-.1-.92-.06-1.11-.29-.98-1.15-1.89-2.37-3.02-3.83Z" fill="#2c1c12"/><path d="M178.98,37.07c-1.42,.44-2.49,2.26-4.28,1.14-1.11-.69-1.32-1.9-1.07-3.2,1.32-.64,1.84,.65,2.72,.96,.81,.28,1.72,.27,2.58,.39l.04,.7Z" fill="#2c1c12"/><path d="M36.99,55.55c-.59-2.02,.43-3.19,1.33-4.32,.44-.55,1.67-.15,1.65,.54-.03,1.06-.16,2.24-.68,3.12-.28,.48-1.45,.44-2.3,.66Z" fill="#2c1c12"/><path d="M240.33,104.17c.72-1.15,2.07-1.03,2.6-.37,.78,.95,2.64,1.47,2.02,3.33-1.17-.1-3.89-1.84-4.62-2.95Z" fill="#2c1c12"/><path d="M207.02,72.81c.64-1.87,1.43-3.28,3.11-3.98,.83,.18,1.16,.77,.74,1.4-.87,1.29-2.08,2.18-3.85,2.58Z" fill="#2c1c12"/><path d="M233.02,57.8c-.68,.29-1.37,.57-1.71,.72-1.44-1.03-2.6-1.87-3.88-2.79,.28-.11,.71-.46,.99-.37,1.34,.44,2.64,.99,3.95,1.51,.29,.12,.58,.26,.86,.39-.07,.18-.14,.36-.22,.54Z" fill="#2c1c12"/><path d="M49.39,45.07c.63-1.02,1.14-1.85,1.66-2.7,1.33,1.2,1.79,2.33,1.13,2.98-.86,.86-1.79,.68-2.79-.28Z" fill="#2c1c12"/><path d="M77.88,34.68c-.78-.13-1.57-.26-2.35-.4,.17-.41,.33-1.16,.52-1.17,1.01-.05,1.58-.49,1.94-1.41,.07-.18,.78-.32,.98-.18,.22,.16,.37,.75,.25,1-.37,.76-.88,1.44-1.34,2.16Z" fill="#2c1c12"/><path d="M208,64.3c.26,1.43,.43,2.36,.61,3.37-1.46,.36-2.46,.22-3.36-.8,.8-.75,1.52-1.43,2.75-2.57Z" fill="#2c1c12"/><path d="M233.33,65.95c2.39-.54,2.84,1.84,4.89,2.26-2.67,.59-3.78,0-4.89-2.26Z" fill="#2c1c12"/><path d="M128.95,38.82c.02,1.45-.9,1.4-1.92,1.22-1.03-.18-1.5-.87-1.49-1.81,0-.23,.75-.71,.99-.62,.86,.32,1.65,.84,2.47,1.28,0,0-.05-.07-.05-.07Z" fill="#2c1c12"/><path d="M229.16,57.78c-.72,2.4-1.63,2.55-3.8,.91,.97-1.51,2.32-.8,3.8-.91Z" fill="#2c1c12"/><path d="M236.74,102.8c-.58,.82-1.49,.77-2.1,.42-.73-.42-1.25-1.22-1.82-1.9-.08-.1,.03-.48,.17-.61,.14-.12,.49-.19,.63-.1,1.04,.69,2.05,1.43,3.13,2.19Z" fill="#2c1c12"/><path d="M114.6,36.31c-.58-.28-.85-.32-.98-.48-.69-.87-.6-1.76,.17-2.5,.2-.19,.82-.24,1.04-.08,.92,.67,.44,1.51,.12,2.3-.12,.29-.26,.58-.34,.76Z" fill="#2c1c12"/><path d="M55.05,38.59c-.41-1.1-.81-2.19-1.26-3.41,.61-.59,1.41-.52,1.83,.01,.8,1.01,.61,2.17,.05,3.23-.21,.06-.41,.11-.62,.17Z" fill="#2c1c12"/><path d="M32.68,46.9c.3-.43,.51-1.1,.91-1.24,.61-.21,1.44-.27,2,0,.6,.28,.43,1.05-.16,1.3-.69,.29-1.49,.34-2.24,.49-.17-.18-.34-.36-.5-.55Z" fill="#2c1c12"/><path d="M195.48,72.81c.25,2.5,.15,2.63-1.89,2.71q-.4-1.77,1.89-2.71Z" fill="#2c1c12"/><path d="M234.54,65.17c-1.65-.69-2.9-1.22-3.49-2.68,2.16-.48,2.31-.37,3.49,2.68Z" fill="#2c1c12"/><path d="M215.64,32.56c-.28,.87-.48,1.5-.8,2.47-.83-1.11-1.45-1.93-2.06-2.75,.08-.15,.15-.29,.23-.44,.82,.23,1.65,.45,2.63,.72Z" fill="#2c1c12"/><path d="M156.44,21.26q1.95-.57,2.54,.85-2.04,.85-2.54-.85Z" fill="#2c1c12"/><path d="M192.67,59.26c.28,1.22,.44,1.9,.65,2.79h-2.63c-.35-1.7,1.06-1.69,1.98-2.79Z" fill="#2c1c12"/><path d="M80.27,38.18c1.41-1.5,1.66-1.46,2.84,.31-1,.95-1.83,.4-2.84-.31Z" fill="#2c1c12"/><path d="M235.94,53.03v-3.72c1.66,1.26,1.68,1.8,0,3.72Z" fill="#2c1c12"/><path d="M183.78,54.8c-.41,.88-.67,1.45-1.07,2.33-.81-.91-1.38-1.55-2.24-2.51,1.18,.07,1.98,.11,3.31,.18Z" fill="#2c1c12"/><path d="M108.35,30.8c-2.17,.21-1.3-1.59-1.93-2.69h1.65c.07,.95,.13,1.86,.2,2.76,0,0,.08-.07,.08-.07Z" fill="#2c1c12"/><path d="M195.86,36.74c-1.19,.5-2.4,.69-3.54-.09,1.19-.71,2.36-.63,3.54,.09Z" fill="#2c1c12"/><path d="M43.7,51.15c.55-1.46,1.57-1.99,2.21-1.35,.18,.17,.04,1.05-.12,1.1-.56,.19-1.19,.17-2.09,.25Z" fill="#2c1c12"/><path d="M171.79,21.68c2.43-1.2,2.53-1.15,2.46,1.04-.74-.31-1.36-.58-2.46-1.04Z" fill="#2c1c12"/><path d="M41.94,54.72c-1.22-.42-1.53-1.08-1.18-1.92,.08-.2,.78-.38,.97-.25,.82,.55,.53,1.27,.21,2.17Z" fill="#2c1c12"/><path d="M111.44,28.2c-.59,.39-.98,.84-1.25,.79-.42-.09-.77-.52-1.15-.81,.35-.23,.69-.62,1.05-.65,.34-.02,.72,.34,1.35,.68Z" fill="#2c1c12"/><path d="M81.31,33.5c-.78-1.16-.91-1.91,0-2.75,1.15,.85,.9,1.62,0,2.75Z" fill="#2c1c12"/><path d="M193.09,39.11h2.53q-.95,1.15-2.53,0Z" fill="#2c1c12"/><path d="M60.81,35.72c-.39,.44-.69,.96-.85,.92-.37-.09-.79-.4-.96-.74-.09-.17,.36-.87,.52-.85,.39,.05,.74,.36,1.29,.66Z" fill="#2c1c12"/><path d="M32.99,34.53c1-.28,2.01-.56,3.01-.84-.6,1.43-1.85,1.02-2.82,1.4-.06-.19-.13-.37-.19-.56Z" fill="#2c1c12"/><path d="M114.24,26.15c-.82-.06-1.63-.12-2.45-.19,0-.19,.02-.38,.02-.56h2.41c0,.25,0,.5,.01,.75Z" fill="#2c1c12"/><path d="M170.06,43.62c1.76-1.12,1.79,.55,2.36,1.2-.67-.34-1.35-.69-2.36-1.2Z" fill="#2c1c12"/><path d="M116.22,29.73c-1.21-.68-1.62-1.15-1.09-1.82,.16-.2,.66-.13,1-.18,.02,.53,.05,1.07,.09,2Z" fill="#2c1c12"/><path d="M240.68,60.6c.63,.17,1.25,.34,2.02,.55q-1.03,.81-2.02-.55Z" fill="#2c1c12"/><path d="M238.99,53.6c.81,1.14,.92,1.84,.1,2.72-.79-.84-.42-1.6-.1-2.72Z" fill="#2c1c12"/><path d="M115.64,24.34c.49-.35,.85-.77,1.04-.7,.34,.12,.6,.51,.81,.84,.04,.06-.41,.59-.55,.56-.39-.1-.73-.37-1.31-.7Z" fill="#2c1c12"/><path d="M13.28,96.16c-.65-.05-1.3-.1-2.15-.16q1.2-.79,2.07,.23s.08-.07,.08-.07Z" fill="#2c1c12"/><path d="M147.71,24.98c-.36,.29-.55,.58-.78,.61-.22,.02-.47-.23-.7-.36,.2-.27,.36-.61,.63-.78,.1-.06,.45,.28,.85,.54Z" fill="#2c1c12"/><path d="M230.06,66.87c-.34,.2-.61,.44-.69,.39-.22-.14-.36-.4-.54-.62,.18-.14,.41-.44,.51-.39,.24,.1,.43,.36,.72,.63Z" fill="#2c1c12"/><path d="M195.86,47.27h2.23c-.66,1.03-1.19,.9-2.23,0Z" fill="#2c1c12"/><path d="M239.66,65.99c-.35-.07-.7-.14-1.05-.2,.08-.2,.17-.57,.22-.57,.33,.04,.65,.17,.97,.26-.05,.17-.09,.34-.14,.51Z" fill="#2c1c12"/><path d="M22.67,142.2c-1.57,.87-2.86,1.59-3.76,2.09-1.87-.92-3.33-1.92-4.94-2.37-3.69-1.01-6.81,.88-7.8,4.58-.68,2.56-.74,5.17,.28,7.67,1.06,2.61,3.16,3.89,5.94,3.9,2.56,0,4.77-.75,6.25-3.59-1.95-.09-3.62-.17-5.44-.25v-3.48h10.6c.55,3.13,0,5.93-2.36,8.18-3.86,3.68-8.46,4.58-13.36,2.79-4.72-1.72-7.27-5.41-7.6-10.45-.11-1.63-.01-3.33,.33-4.93,1.02-4.86,4.38-7.94,9.39-8.73,4.83-.76,9.04,.32,12.5,4.59Z" fill="#2c1c12"/><path d="M147.73,138.02h3.63v18.39c-.76,.06-1.44,.08-2.12,.16-1.18,.15-1.86-.4-2.46-1.39-1.99-3.31-4.05-6.58-6.1-9.86-.4-.63-.85-1.23-1.67-1.72v12.79h-3.39c-.45-1.7-.59-14.85-.16-18.41,1.34-.02,2.74-.17,4.11-.01,.56,.07,1.17,.72,1.53,1.26,1.71,2.55,3.35,5.16,5.02,7.74,.37,.58,.77,1.15,1.61,1.64v-10.6Z" fill="#2c1c12"/><path d="M274.52,161.35h-4.92c0-2.36-.05-4.62,.02-6.89,.04-1.32-.3-2.45-.97-3.57-2.24-3.72-4.41-7.48-6.6-11.23-.38-.66-.71-1.34-1.17-2.23h5.48c1.81,3.28,3.7,6.7,5.81,10.51,1.99-3.72,3.79-7.08,5.63-10.51h5.17c-.29,.65-.49,1.22-.79,1.74-2.22,3.82-4.44,7.65-6.72,11.43-.68,1.13-.99,2.26-.95,3.57,.07,2.35,.02,4.7,.02,7.17Z" fill="#2c1c12"/><path d="M192.79,152.61c-.52,1.37-.96,2.54-1.44,3.82h-4.06c2.23-6.25,4.38-12.29,6.56-18.41h4.11c2.15,5.98,4.33,12.02,6.6,18.33h-3.88c-.47-1.14-.99-2.43-1.54-3.75h-6.35Zm5.61-2.71c-.81-2.39-1.51-4.46-2.21-6.54-.15,0-.3,0-.46,0-.68,2.11-1.36,4.22-2.11,6.53h4.78Z" fill="#2c1c12"/><path d="M95.24,137.99c2.18,6.07,4.34,12.1,6.6,18.4h-3.9c-.47-1.19-.95-2.42-1.47-3.74h-6.35c-.48,1.17-1.01,2.46-1.57,3.82h-3.51c-.01-1.62,4.77-15.54,6.33-18.47h3.85Zm-4.33,11.81h4.72c-.78-2.34-1.48-4.41-2.17-6.49l-.42,.05c-.68,2.06-1.36,4.11-2.13,6.44Z" fill="#2c1c12"/><path d="M28.5,156.41c2.25-6.29,4.42-12.35,6.59-18.42h4.06c2.16,6,4.36,12.11,6.63,18.44h-3.9c-.49-1.24-.98-2.47-1.5-3.79h-6.36c-.26,.7-.64,1.47-.84,2.28-.32,1.29-1.04,1.85-2.38,1.65-.67-.1-1.35-.1-2.3-.17Zm8.92-13.01c-.15-.02-.3-.05-.44-.07-.69,2.1-1.39,4.21-2.13,6.48h4.71c-.77-2.3-1.45-4.35-2.14-6.41Z" fill="#2c1c12"/><path d="M165.67,138.01h4.15c1.57,4.3,3.16,8.64,4.94,13.5,1.76-4.86,3.34-9.2,4.89-13.48h4.05c-2.25,6.27-4.41,12.3-6.6,18.41h-4.83c-2.14-5.97-4.3-12-6.6-18.43Z" fill="#2c1c12"/><path d="M255.82,138.19v2.48h-8.35v4.31c1.66,.08,3.21,.15,4.96,.23,.06,.8,.12,1.53,.19,2.5-1.77,.09-3.38,.18-5.14,.27v5.73h8.34v2.7h-11.75c-.48-1.71-.65-14.02-.25-18.09,1.62-.52,9.29-.62,11.99-.13Z" fill="#2c1c12"/><path d="M121.66,138.02v3.08h-5.81v15.28h-3.78c-.14-2.43-.05-4.92-.06-7.41-.02-2.51,0-5.02,0-7.74h-5.76v-3.21h15.43Z" fill="#2c1c12"/><path d="M239.03,153.2v3.21h-12.66v-18.28h3.54v15.07h9.13Z" fill="#2c1c12"/><path d="M212.38,153.27h9.24v2.91c-1.6,.47-8.91,.61-12.37,.22-.52-1.76-.57-16.08-.05-18.38h3.18v15.25Z" fill="#2c1c12"/><path d="M50.29,138.01h3.34v15.2h9.22v3.31c-4.17,.1-8.3,.04-12.37,.04-.53-1.87-.65-15.31-.19-18.55Z" fill="#2c1c12"/><path d="M67.6,138.01h3.49c.1,5.06-.02,10.06,.07,15.27h9.02v2.92c-1.72,.46-9.7,.55-12.59,.12v-18.31Z" fill="#2c1c12"/><path d="M129.8,156.45h-3.07v-18.37h3.07v18.37Z" fill="#2c1c12"/></g></svg>